<svg xmlns="http://www.w3.org/2000/svg" viewBox="0 0 1200 630" role="img" aria-label="DivGaming">
  <defs>
    <radialGradient id="bg1" cx="20%" cy="12%" r="60%">
      <stop offset="0" stop-color="#ff6b00" stop-opacity=".34"/>
      <stop offset=".5" stop-color="#ff6b00" stop-opacity=".08"/>
      <stop offset="1" stop-color="#070807" stop-opacity="0"/>
    </radialGradient>
    <linearGradient id="dvg" x1="130" y1="120" x2="360" y2="420">
      <stop offset="0" stop-color="#ff6b00"/>
      <stop offset=".42" stop-color="#ffd39b"/>
      <stop offset=".72" stop-color="#ff7a00"/>
      <stop offset="1" stop-color="#b83a00"/>
    </linearGradient>
  </defs>
  <rect width="1200" height="630" fill="#070807"/>
  <rect width="1200" height="630" fill="url(#bg1)"/>
  <path d="M0 520h1200" stroke="#ff6b00" stroke-opacity=".25" stroke-width="2"/>
  <g opacity=".16">
    <path d="M0 80h1200M0 160h1200M0 240h1200M0 320h1200M0 400h1200M0 480h1200"/>
    <path d="M80 0v630M160 0v630M240 0v630M320 0v630M400 0v630M480 0v630M560 0v630M640 0v630M720 0v630M800 0v630M880 0v630M960 0v630M1040 0v630M1120 0v630"/>
  </g>
  <rect x="82" y="130" width="210" height="210" rx="46" fill="#080908" stroke="#ff6b00" stroke-opacity=".35" stroke-width="4"/>
  <path d="M132 170h58c62 0 102 39 102 68s-40 68-102 68h-58V170Zm43 40v56h18c33 0 54-10 54-28s-21-28-54-28h-18Z" fill="url(#dvg)"/>
  <text x="335" y="252" fill="#ff6b00" font-family="Arial Black, Impact, sans-serif" font-size="86" font-weight="900" letter-spacing="-4">DIVGAMING</text>
  <text x="335" y="315" fill="#fff" font-family="Arial Black, Impact, sans-serif" font-size="44" font-weight="900" letter-spacing="-1">THE DIVISION 2 COMMUNITY HUB</text>
  <text x="338" y="365" fill="#b8afa3" font-family="Arial, sans-serif" font-size="26" font-weight="700">Builds • Tools • Guides • Videos • Creators</text>
</svg>
